# Blender v2.76 (sub 0) OBJ File: 'tank_top_no_texture.blend'
# www.blender.org
mtllib missel.mtl
o Cylinder.002_Cylinder.003
v 0.002703 1.716856 3.661549
v 0.002703 1.716856 3.921026
v 0.014266 1.715717 3.661549
v 0.014266 1.715717 3.921026
v 0.025384 1.712345 3.661549
v 0.025384 1.712345 3.921026
v 0.035630 1.706868 3.661549
v 0.035630 1.706868 3.921026
v 0.044611 1.699497 3.661549
v 0.044611 1.699497 3.921026
v 0.051982 1.690516 3.661549
v 0.051982 1.690516 3.921026
v 0.057459 1.680269 3.661549
v 0.057459 1.680269 3.921026
v 0.060832 1.669151 3.661549
v 0.060832 1.669151 3.921026
v 0.061970 1.657589 3.661549
v 0.061970 1.657589 3.921026
v 0.060832 1.646026 3.661549
v 0.060832 1.646026 3.921026
v 0.057459 1.634908 3.661549
v 0.057459 1.634908 3.921026
v 0.051982 1.624662 3.661549
v 0.051982 1.624662 3.921026
v 0.044611 1.615680 3.661549
v 0.044611 1.615680 3.921026
v 0.035630 1.608310 3.661549
v 0.035630 1.608310 3.921026
v 0.025384 1.602833 3.661549
v 0.025384 1.602833 3.921026
v 0.014266 1.599460 3.661549
v 0.014266 1.599460 3.921026
v 0.002703 1.598321 3.661549
v 0.002703 1.598321 3.921026
v -0.008859 1.599460 3.661549
v -0.008859 1.599460 3.921026
v -0.019977 1.602833 3.661549
v -0.019977 1.602833 3.921026
v -0.030224 1.608310 3.661549
v -0.030224 1.608310 3.921026
v -0.039205 1.615680 3.661549
v -0.039205 1.615680 3.921026
v -0.046576 1.624662 3.661549
v -0.046576 1.624662 3.921026
v -0.052053 1.634908 3.661549
v -0.052053 1.634908 3.921026
v -0.055425 1.646026 3.661549
v -0.055425 1.646026 3.921026
v -0.056564 1.657589 3.661549
v -0.056564 1.657589 3.921026
v -0.055425 1.669151 3.661549
v -0.055425 1.669151 3.921026
v -0.052053 1.680269 3.661549
v -0.052053 1.680269 3.921026
v -0.046576 1.690516 3.661549
v -0.046576 1.690516 3.921026
v -0.039205 1.699497 3.661549
v -0.039205 1.699497 3.921026
v -0.030224 1.706868 3.661549
v -0.030224 1.706868 3.921026
v -0.019977 1.712345 3.661549
v -0.019977 1.712345 3.921026
v -0.008859 1.715717 3.661549
v -0.008859 1.715717 3.921026
v 0.003025 1.659205 4.093150
v 0.002703 1.659237 4.093150
v 0.003334 1.659111 4.093150
v 0.003619 1.658959 4.093150
v 0.003868 1.658754 4.093150
v 0.004073 1.658504 4.093150
v 0.004225 1.658219 4.093150
v 0.004319 1.657910 4.093150
v 0.004351 1.657589 4.093150
v 0.004319 1.657267 4.093150
v 0.004225 1.656958 4.093150
v 0.004073 1.656673 4.093150
v 0.003868 1.656424 4.093150
v 0.003619 1.656219 4.093150
v 0.003334 1.656066 4.093150
v 0.003025 1.655973 4.093150
v 0.002703 1.655941 4.093150
v 0.002382 1.655973 4.093150
v 0.002073 1.656066 4.093150
v 0.001788 1.656219 4.093150
v 0.001538 1.656424 4.093150
v 0.001333 1.656673 4.093150
v 0.001181 1.656958 4.093150
v 0.001087 1.657267 4.093150
v 0.001055 1.657589 4.093150
v 0.001087 1.657910 4.093150
v 0.001181 1.658219 4.093150
v 0.001333 1.658504 4.093150
v 0.001538 1.658754 4.093150
v 0.001788 1.658959 4.093150
v 0.002073 1.659111 4.093150
v 0.002382 1.659205 4.093150
v 0.002703 1.706466 3.722051
v 0.012239 1.705526 3.722051
v 0.021408 1.702745 3.722051
v 0.029858 1.698228 3.722051
v 0.037264 1.692150 3.722051
v 0.043343 1.684743 3.722051
v 0.047860 1.676293 3.722051
v 0.050641 1.667124 3.722051
v 0.051580 1.657589 3.722051
v 0.050641 1.648053 3.722051
v 0.047860 1.638884 3.722051
v 0.043343 1.630434 3.722051
v 0.037264 1.623027 3.722051
v 0.029858 1.616949 3.722051
v 0.021408 1.612432 3.722051
v 0.012239 1.609651 3.722051
v 0.002703 1.608712 3.722051
v -0.006832 1.609651 3.722051
v -0.016001 1.612432 3.722051
v -0.024451 1.616949 3.722051
v -0.031858 1.623027 3.722051
v -0.037937 1.630434 3.722051
v -0.042453 1.638884 3.722051
v -0.045235 1.648053 3.722051
v -0.046174 1.657589 3.722051
v -0.045235 1.667124 3.722051
v -0.042453 1.676293 3.722051
v -0.037937 1.684743 3.722051
v -0.031858 1.692150 3.722051
v -0.024451 1.698228 3.722051
v -0.016001 1.702745 3.722051
v -0.006832 1.705526 3.722051
vn 0.097900 0.993800 -0.051900
vn 0.289900 0.955700 -0.051900
vn 0.470800 0.880700 -0.051900
vn 0.633500 0.772000 -0.051900
vn 0.772000 0.633500 -0.051900
vn 0.880700 0.470800 -0.051900
vn 0.955700 0.289900 -0.051900
vn 0.993800 0.097900 -0.051900
vn 0.993800 -0.097900 -0.051900
vn 0.955700 -0.289900 -0.051900
vn 0.880700 -0.470800 -0.051900
vn 0.772000 -0.633500 -0.051900
vn 0.633500 -0.772000 -0.051900
vn 0.470800 -0.880700 -0.051900
vn 0.289900 -0.955700 -0.051900
vn 0.097900 -0.993800 -0.051900
vn -0.097900 -0.993800 -0.051900
vn -0.289900 -0.955700 -0.051900
vn -0.470800 -0.880700 -0.051900
vn -0.633500 -0.772000 -0.051900
vn -0.772000 -0.633500 -0.051900
vn -0.880700 -0.470800 -0.051900
vn -0.955700 -0.289900 -0.051900
vn -0.993800 -0.097900 -0.051900
vn -0.993800 0.097900 -0.051900
vn -0.955700 0.289900 -0.051900
vn -0.880700 0.470800 -0.051900
vn -0.772000 0.633500 -0.051900
vn -0.633500 0.772000 -0.051900
vn -0.470800 0.880700 -0.051900
vn -0.733400 -0.601900 0.316100
vn -0.097900 0.993800 -0.051900
vn -0.289900 0.955700 -0.051900
vn -0.000000 0.000000 -1.000000
vn 0.000000 0.000000 1.000000
vn -0.447200 0.836700 0.316100
vn 0.944200 0.093000 0.316100
vn -0.093000 -0.944200 0.316100
vn -0.907900 0.275400 0.316100
vn 0.601900 0.733400 0.316100
vn 0.601900 -0.733400 0.316100
vn -0.836700 -0.447200 0.316100
vn -0.275400 0.907900 0.316100
vn 0.944200 -0.093000 0.316100
vn -0.275400 -0.907900 0.316100
vn -0.836700 0.447200 0.316100
vn 0.733400 0.601900 0.316100
vn 0.447200 -0.836700 0.316100
vn -0.907900 -0.275400 0.316100
vn 0.093000 0.944200 0.316100
vn -0.093000 0.944200 0.316100
vn 0.907900 -0.275400 0.316100
vn -0.447200 -0.836700 0.316100
vn -0.733400 0.601900 0.316100
vn 0.836700 0.447200 0.316100
vn 0.275400 -0.907900 0.316100
vn -0.944200 -0.093000 0.316100
vn 0.275400 0.907900 0.316100
vn 0.836700 -0.447200 0.316100
vn -0.601900 -0.733400 0.316100
vn -0.601900 0.733400 0.316100
vn 0.907900 0.275400 0.316100
vn 0.093000 -0.944200 0.316100
vn -0.944200 0.093000 0.316100
vn 0.447200 0.836700 0.316100
vn 0.733400 -0.601900 0.316100
vn -0.286100 0.943300 0.168500
vn -0.096600 0.981000 0.168500
vn -0.464700 0.869300 0.168500
vn -0.625300 0.762000 0.168500
vn -0.762000 0.625300 0.168500
vn -0.869300 0.464700 0.168500
vn -0.943300 0.286100 0.168500
vn -0.981000 0.096600 0.168500
vn -0.981000 -0.096600 0.168500
vn -0.943300 -0.286100 0.168500
vn -0.869300 -0.464700 0.168500
vn -0.762000 -0.625300 0.168500
vn -0.625300 -0.762000 0.168500
vn -0.464700 -0.869300 0.168500
vn -0.286100 -0.943300 0.168500
vn -0.096600 -0.981000 0.168500
vn 0.096600 -0.981000 0.168500
vn 0.286100 -0.943300 0.168500
vn 0.464700 -0.869300 0.168500
vn 0.625300 -0.762000 0.168500
vn 0.762000 -0.625300 0.168500
vn 0.869300 -0.464700 0.168500
vn 0.943300 -0.286100 0.168500
vn 0.981000 -0.096600 0.168500
vn 0.981000 0.096600 0.168500
vn 0.943300 0.286100 0.168500
vn 0.869300 0.464700 0.168500
vn 0.762000 0.625300 0.168500
vn 0.625300 0.762000 0.168500
vn 0.464700 0.869300 0.168500
vn 0.286100 0.943300 0.168500
vn 0.096600 0.981000 0.168500
usemtl None
s off
f 97//1 2//1 4//1 98//1
f 98//2 4//2 6//2 99//2
f 99//3 6//3 8//3 100//3
f 100//4 8//4 10//4 101//4
f 101//5 10//5 12//5 102//5
f 102//6 12//6 14//6 103//6
f 103//7 14//7 16//7 104//7
f 104//8 16//8 18//8 105//8
f 105//9 18//9 20//9 106//9
f 106//10 20//10 22//10 107//10
f 107//11 22//11 24//11 108//11
f 108//12 24//12 26//12 109//12
f 109//13 26//13 28//13 110//13
f 110//14 28//14 30//14 111//14
f 111//15 30//15 32//15 112//15
f 112//16 32//16 34//16 113//16
f 113//17 34//17 36//17 114//17
f 114//18 36//18 38//18 115//18
f 115//19 38//19 40//19 116//19
f 116//20 40//20 42//20 117//20
f 117//21 42//21 44//21 118//21
f 118//22 44//22 46//22 119//22
f 119//23 46//23 48//23 120//23
f 120//24 48//24 50//24 121//24
f 121//25 50//25 52//25 122//25
f 122//26 52//26 54//26 123//26
f 123//27 54//27 56//27 124//27
f 124//28 56//28 58//28 125//28
f 125//29 58//29 60//29 126//29
f 126//30 60//30 62//30 127//30
f 44//31 42//31 85//31 86//31
f 128//32 64//32 2//32 97//32
f 127//33 62//33 64//33 128//33
f 1//34 3//34 5//34 7//34 9//34 11//34 13//34 15//34 17//34 19//34 21//34 23//34 25//34 27//34 29//34 31//34 33//34 35//34 37//34 39//34 41//34 43//34 45//34 47//34 49//34 51//34 53//34 55//34 57//34 59//34 61//34 63//34
f 65//35 66//35 96//35 95//35 94//35 93//35 92//35 91//35 90//35 89//35 88//35 87//35 86//35 85//35 84//35 83//35 82//35 81//35 80//35 79//35 78//35 77//35 76//35 75//35 74//35 73//35 72//35 71//35 70//35 69//35 68//35 67//35
f 62//36 60//36 94//36 95//36
f 18//37 16//37 72//37 73//37
f 36//38 34//38 81//38 82//38
f 54//39 52//39 90//39 91//39
f 10//40 8//40 68//40 69//40
f 28//41 26//41 77//41 78//41
f 46//42 44//42 86//42 87//42
f 64//43 62//43 95//43 96//43
f 20//44 18//44 73//44 74//44
f 38//45 36//45 82//45 83//45
f 56//46 54//46 91//46 92//46
f 12//47 10//47 69//47 70//47
f 30//48 28//48 78//48 79//48
f 48//49 46//49 87//49 88//49
f 4//50 2//50 66//50 65//50
f 2//51 64//51 96//51 66//51
f 22//52 20//52 74//52 75//52
f 40//53 38//53 83//53 84//53
f 58//54 56//54 92//54 93//54
f 14//55 12//55 70//55 71//55
f 32//56 30//56 79//56 80//56
f 50//57 48//57 88//57 89//57
f 6//58 4//58 65//58 67//58
f 24//59 22//59 75//59 76//59
f 42//60 40//60 84//60 85//60
f 60//61 58//61 93//61 94//61
f 16//62 14//62 71//62 72//62
f 34//63 32//63 80//63 81//63
f 52//64 50//64 89//64 90//64
f 8//65 6//65 67//65 68//65
f 26//66 24//66 76//66 77//66
f 61//67 127//67 128//67 63//67
f 63//68 128//68 97//68 1//68
f 59//69 126//69 127//69 61//69
f 57//70 125//70 126//70 59//70
f 55//71 124//71 125//71 57//71
f 53//72 123//72 124//72 55//72
f 51//73 122//73 123//73 53//73
f 49//74 121//74 122//74 51//74
f 47//75 120//75 121//75 49//75
f 45//76 119//76 120//76 47//76
f 43//77 118//77 119//77 45//77
f 41//78 117//78 118//78 43//78
f 39//79 116//79 117//79 41//79
f 37//80 115//80 116//80 39//80
f 35//81 114//81 115//81 37//81
f 33//82 113//82 114//82 35//82
f 31//83 112//83 113//83 33//83
f 29//84 111//84 112//84 31//84
f 27//85 110//85 111//85 29//85
f 25//86 109//86 110//86 27//86
f 23//87 108//87 109//87 25//87
f 21//88 107//88 108//88 23//88
f 19//89 106//89 107//89 21//89
f 17//90 105//90 106//90 19//90
f 15//91 104//91 105//91 17//91
f 13//92 103//92 104//92 15//92
f 11//93 102//93 103//93 13//93
f 9//94 101//94 102//94 11//94
f 7//95 100//95 101//95 9//95
f 5//96 99//96 100//96 7//96
f 3//97 98//97 99//97 5//97
f 1//98 97//98 98//98 3//98
