# Blender v2.76 (sub 0) OBJ File: 'tank_top.blend'
# www.blender.org
mtllib tank_top.mtl
o Cylinder
v -0.000000 1.749104 0.696858
v -0.000000 1.749104 3.791621
v 0.044747 1.737114 0.696858
v 0.044747 1.737114 3.791621
v 0.077504 1.704357 0.696861
v 0.077504 1.704357 3.791621
v 0.089493 1.659611 0.696861
v 0.089493 1.659611 3.791621
v 0.077504 1.614864 0.696861
v 0.077504 1.614864 3.791621
v 0.044747 1.582107 0.696861
v 0.044747 1.582107 3.791621
v 0.000000 1.570117 0.696861
v 0.000000 1.570117 3.791621
v -0.044747 1.582107 0.696861
v -0.044747 1.582107 3.791621
v -0.077504 1.614864 0.696861
v -0.077504 1.614864 3.791621
v -0.089493 1.659611 0.696861
v -0.089493 1.659611 3.791621
v -0.077504 1.704357 0.696861
v -0.077504 1.704357 3.791621
v -0.044747 1.737114 0.696858
v -0.044747 1.737114 3.791621
v -0.000000 1.749104 3.791621
v 0.044747 1.737114 3.791621
v 0.077504 1.704357 3.791621
v 0.089493 1.659611 3.791621
v 0.077504 1.614864 3.791621
v 0.044747 1.582107 3.791621
v 0.000000 1.570117 3.791621
v -0.044747 1.582107 3.791621
v -0.077504 1.614864 3.791621
v -0.089493 1.659611 3.791621
v -0.077504 1.704357 3.791621
v -0.044747 1.737114 3.791621
v -0.000000 1.749104 3.791621
v 0.044747 1.737114 3.791621
v 0.077504 1.704357 3.791621
v 0.089493 1.659611 3.791621
v 0.077504 1.614864 3.791621
v 0.044747 1.582107 3.791621
v 0.000000 1.570117 3.791621
v -0.044747 1.582107 3.791621
v -0.077504 1.614864 3.791621
v -0.089493 1.659611 3.791621
v -0.077504 1.704357 3.791621
v -0.044747 1.737114 3.791621
v 0.000000 1.734286 3.791621
v 0.037338 1.724281 3.791621
v 0.064671 1.696948 3.791621
v 0.074676 1.659611 3.791621
v 0.064671 1.622273 3.791621
v 0.037338 1.594940 3.791621
v 0.000000 1.584935 3.791621
v -0.037338 1.594940 3.791621
v -0.064671 1.622273 3.791621
v -0.074676 1.659611 3.791621
v -0.064671 1.696948 3.791621
v -0.037338 1.724281 3.791621
v 0.000000 1.734286 0.808854
v 0.037338 1.724281 0.808854
v 0.064671 1.696948 0.808854
v 0.074676 1.659611 0.808854
v 0.064671 1.622273 0.808854
v 0.037338 1.594940 0.808854
v 0.000000 1.584935 0.808854
v -0.037338 1.594940 0.808854
v -0.064671 1.622273 0.808854
v -0.074676 1.659611 0.808854
v -0.064671 1.696948 0.808854
v -0.037338 1.724281 0.808854
v -0.576626 1.528036 1.004383
v -0.450842 1.873363 0.815746
v -0.576626 1.528036 -1.467156
v -0.576626 1.873363 -1.520027
v 0.576626 1.528036 1.004383
v 0.450842 1.873363 0.815746
v 0.576626 1.528036 -1.467156
v 0.576626 1.873363 -1.520027
v -1.031434 2.157117 -0.221359
v -1.031434 2.157117 -0.870693
v -1.031434 1.528036 -0.870693
v -1.031434 1.528036 -0.221359
v 1.031434 2.157117 -0.870693
v 1.031434 2.157117 -0.221359
v 1.031434 1.528036 -0.221359
v 1.031434 1.528036 -0.870693
v 0.576626 1.528036 -1.388211
v -0.576626 1.528036 -1.388211
v -0.576626 1.528170 1.004628
v -0.450842 1.873497 0.815991
v 0.450842 1.873497 0.815991
v 0.576626 1.528170 1.004628
v -0.509755 1.548194 0.993690
v -0.398558 1.853474 0.826929
v 0.398558 1.853474 0.826929
v 0.509755 1.548194 0.993690
v -0.411363 1.577656 1.108231
v -0.321629 1.824011 0.991730
v 0.321629 1.824011 0.991730
v 0.411363 1.577656 1.108231
vt 0.975776 0.003766
vt 0.048142 0.002417
vt 0.044801 0.002075
vt 0.039123 0.001794
vt 0.939957 0.001673
vt 0.030781 0.001681
vt 0.928566 0.002836
vt 0.018688 0.001913
vt 0.921651 0.004902
vt 0.000012 0.002526
vt 0.919302 0.007436
vt 0.018680 0.003340
vt 0.921623 0.009996
vt 0.030770 0.003699
vt 0.928517 0.012135
vt 0.039110 0.003676
vt 0.939894 0.013419
vt 0.044781 0.003460
vt 0.955665 0.013419
vt 0.048146 0.003148
vt 0.975733 0.011710
vt 0.049286 0.002789
vt 0.019768 0.004300
vt 0.005406 0.002555
vt 0.019785 0.000962
vt 0.030495 0.001011
vt 0.048163 0.002782
vt 0.038301 0.001370
vt 0.047048 0.003262
vt 0.043798 0.001825
vt 0.043759 0.003705
vt 0.047030 0.002291
vt 0.038287 0.004091
vt 0.030479 0.004368
vt 0.047040 0.002775
vt 0.042795 0.001574
vt 0.037464 0.004506
vt 0.010800 0.002584
vt 0.037479 0.000945
vt 0.042737 0.003951
vt 0.020855 0.005261
vt 0.030210 0.000341
vt 0.045950 0.003375
vt 0.045918 0.002163
vt 0.030188 0.005037
vt 0.020882 0.000012
vt 0.022563 0.002231
vt 0.017661 0.002712
vt 0.045567 0.002752
vt 0.044526 0.002739
vt 0.041393 0.002684
vt 0.036377 0.002558
vt 0.036324 0.002857
vt 0.041372 0.002789
vt 0.022510 0.003103
vt 0.029781 0.002368
vt 0.044500 0.002764
vt 0.029712 0.002994
vt 0.034259 0.002692
vt 0.034243 0.002712
vt 0.034462 0.002713
vt 0.034450 0.002692
vt 0.034362 0.002752
vt 0.000000 0.000000
vt 1.000000 0.000000
vt 1.000000 1.000000
vt 0.955728 0.001842
vt 0.999988 0.007868
vn 0.258800 0.965900 0.000000
vn 0.707100 0.707100 0.000000
vn 0.965900 0.258800 0.000000
vn 0.965900 -0.258800 0.000000
vn 0.707100 -0.707100 0.000000
vn 0.258800 -0.965900 0.000000
vn -0.258800 -0.965900 0.000000
vn -0.707100 -0.707100 0.000000
vn -0.965900 -0.258800 0.000000
vn -0.965900 0.258800 0.000000
vn -0.707100 0.707100 0.000000
vn -0.258800 0.965900 0.000000
vn 0.000000 0.000000 1.000000
vn -0.000100 0.000000 1.000000
vn -0.791800 -0.092400 -0.603800
vn 0.000000 -0.151300 -0.988500
vn 0.827900 0.469300 0.307200
vn 0.000000 0.878100 -0.478400
vn 0.000000 -1.000000 0.000000
vn 0.000000 0.916300 -0.400400
vn 0.000000 0.964500 0.263900
vn 0.000000 1.000000 0.000000
vn 0.819100 0.000000 -0.573700
vn 1.000000 0.000000 0.000000
vn -0.872600 0.000000 0.488500
vn -1.000000 0.000000 0.000000
vn 0.000000 0.479400 0.877600
vn 0.952500 0.267200 -0.146000
vn -0.952500 0.267200 -0.145700
vn 0.000000 -0.877700 0.479200
vn 0.000000 0.984400 0.176000
vn 0.000000 0.427500 0.904000
vn -0.709900 0.518800 0.476400
vn 0.000000 -0.968500 0.249100
vn 0.756800 0.483600 0.439700
vn -0.819100 0.000000 -0.573700
vn 0.872600 0.000000 0.488500
vn 0.000000 0.877700 -0.479100
vn 0.791800 -0.092400 -0.603800
vn -0.827900 0.469300 0.307200
vn 0.952600 0.267200 -0.145800
vn -0.952500 0.267200 -0.146000
vn -0.756800 0.483600 0.439700
vn 0.709900 0.518800 0.476400
usemtl Material.004
s off
f 1/1/1 2/2/1 4/3/1
f 4/3/2 6/4/2 5/5/2
f 6/4/3 8/6/3 7/7/3
f 8/6/4 10/8/4 9/9/4
f 10/8/5 12/10/5 11/11/5
f 12/10/6 14/12/6 13/13/6
f 14/12/7 16/14/7 15/15/7
f 16/14/8 18/16/8 17/17/8
f 18/16/9 20/18/9 19/19/9
f 20/18/10 22/20/10 21/21/10
f 21/21/11 22/20/11 24/22/11
f 24/22/12 2/2/12 1/1/12
f 16/14/13 14/12/13 31/23/13
f 14/12/13 12/10/13 30/24/13
f 12/10/13 10/8/13 29/25/13
f 10/8/13 8/6/13 28/26/13
f 2/2/13 24/22/13 36/27/13
f 8/6/13 6/4/13 27/28/13
f 24/22/13 22/20/13 35/29/13
f 6/4/13 4/3/13 26/30/13
f 22/20/13 20/18/13 34/31/13
f 4/3/13 2/2/13 25/32/13
f 20/18/13 18/16/13 33/33/13
f 18/16/13 16/14/13 32/34/13
f 25/32/13 36/27/13 48/35/13
f 27/28/13 26/30/13 38/36/13
f 34/31/13 33/33/13 45/37/13
f 31/23/13 30/24/13 42/38/13
f 28/26/13 27/28/13 39/39/13
f 35/29/13 34/31/13 46/40/13
f 32/34/13 31/23/13 43/41/13
f 29/25/13 28/26/13 40/42/13
f 36/27/13 35/29/13 47/43/13
f 26/30/13 25/32/13 37/44/13
f 33/33/13 32/34/13 44/45/13
f 30/24/13 29/25/13 41/46/13
f 41/46/13 53/47/13 54/48/13
f 48/35/13 60/49/13 49/50/13
f 38/36/13 50/51/13 51/52/13
f 45/37/14 57/53/14 58/54/14
f 42/38/13 54/48/13 55/55/13
f 39/39/13 51/52/13 52/56/13
f 46/40/13 58/54/13 59/57/13
f 43/41/13 55/55/13 56/58/13
f 40/42/13 52/56/13 53/47/13
f 47/43/13 59/57/13 60/49/13
f 38/36/13 37/44/13 49/50/13
f 44/45/13 56/58/13 57/53/13
f 53/47/11 65/59/11 66/60/11
f 60/49/6 72/61/6 61/62/6
f 50/51/8 62/62/8 63/62/8
f 57/53/3 69/63/3 70/62/3
f 54/48/12 66/60/12 67/59/12
f 51/52/9 63/62/9 64/59/9
f 58/54/4 70/62/4 71/62/4
f 55/55/1 67/59/1 68/59/1
f 52/56/10 64/59/10 65/59/10
f 59/57/5 71/62/5 72/61/5
f 49/50/7 61/62/7 62/62/7
f 56/58/2 68/59/2 69/63/2
f 76/64/15 75/65/15 83/66/15
f 80/64/16 79/65/16 75/66/16
f 78/64/17 77/65/17 87/66/17
f 74/64/18 92/65/18 93/66/18
f 75/64/19 79/65/19 88/66/19
f 80/64/20 76/65/20 82/66/20
f 78/64/21 86/65/21 81/66/21
f 85/64/22 82/65/22 81/66/22
f 73/64/19 84/65/19 87/66/19
f 83/64/19 88/65/19 87/66/19
f 80/64/23 85/65/23 88/66/23
f 86/64/24 87/65/24 88/66/24
f 74/64/25 81/65/25 84/66/25
f 82/64/26 83/65/26 84/66/26
f 94/64/27 98/65/27 95/66/27
f 78/64/28 93/65/28 94/66/28
f 74/64/29 73/65/29 91/66/29
f 77/64/30 94/65/30 91/66/30
f 96/64/31 100/65/31 101/66/31
f 93/64/27 97/65/27 98/66/27
f 92/64/27 96/65/27 97/66/27
f 92/64/27 91/65/27 95/66/27
f 101/64/32 100/65/32 99/66/32
f 96/64/33 95/65/33 99/66/33
f 98/64/34 102/65/34 99/66/34
f 97/64/35 101/65/35 102/66/35
f 3/67/1 1/1/1 4/3/1
f 3/67/2 4/3/2 5/5/2
f 5/5/3 6/4/3 7/7/3
f 7/7/4 8/6/4 9/9/4
f 9/9/5 10/8/5 11/11/5
f 11/11/6 12/10/6 13/13/6
f 13/13/7 14/12/7 15/15/7
f 15/15/8 16/14/8 17/17/8
f 17/17/9 18/16/9 19/19/9
f 19/19/10 20/18/10 21/21/10
f 23/68/11 21/21/11 24/22/11
f 23/68/12 24/22/12 1/1/12
f 32/34/13 16/14/13 31/23/13
f 31/23/13 14/12/13 30/24/13
f 30/24/13 12/10/13 29/25/13
f 29/25/13 10/8/13 28/26/13
f 25/32/13 2/2/13 36/27/13
f 28/26/13 8/6/13 27/28/13
f 36/27/13 24/22/13 35/29/13
f 27/28/13 6/4/13 26/30/13
f 35/29/13 22/20/13 34/31/13
f 26/30/13 4/3/13 25/32/13
f 34/31/13 20/18/13 33/33/13
f 33/33/13 18/16/13 32/34/13
f 37/44/13 25/32/13 48/35/13
f 39/39/13 27/28/13 38/36/13
f 46/40/13 34/31/13 45/37/13
f 43/41/13 31/23/13 42/38/13
f 40/42/13 28/26/13 39/39/13
f 47/43/13 35/29/13 46/40/13
f 44/45/13 32/34/13 43/41/13
f 41/46/13 29/25/13 40/42/13
f 48/35/13 36/27/13 47/43/13
f 38/36/13 26/30/13 37/44/13
f 45/37/13 33/33/13 44/45/13
f 42/38/13 30/24/13 41/46/13
f 42/38/13 41/46/13 54/48/13
f 37/44/13 48/35/13 49/50/13
f 39/39/13 38/36/13 51/52/13
f 46/40/13 45/37/13 58/54/13
f 43/41/13 42/38/13 55/55/13
f 40/42/13 39/39/13 52/56/13
f 47/43/13 46/40/13 59/57/13
f 44/45/13 43/41/13 56/58/13
f 41/46/13 40/42/13 53/47/13
f 48/35/13 47/43/13 60/49/13
f 50/51/13 38/36/13 49/50/13
f 45/37/13 44/45/13 57/53/13
f 54/48/11 53/47/11 66/60/11
f 49/50/6 60/49/6 61/62/6
f 51/52/8 50/51/8 63/62/8
f 58/54/3 57/53/3 70/62/3
f 55/55/12 54/48/12 67/59/12
f 52/56/9 51/52/9 64/59/9
f 59/57/4 58/54/4 71/62/4
f 56/58/1 55/55/1 68/59/1
f 53/47/10 52/56/10 65/59/10
f 60/49/5 59/57/5 72/61/5
f 50/51/7 49/50/7 62/62/7
f 57/53/2 56/58/2 69/63/2
f 82/64/36 76/65/36 83/66/36
f 76/64/16 80/65/16 75/66/16
f 86/64/37 78/65/37 87/66/37
f 78/64/38 74/65/38 93/66/38
f 83/64/19 75/65/19 88/66/19
f 85/64/20 80/65/20 82/66/20
f 74/64/21 78/65/21 81/66/21
f 86/64/22 85/65/22 81/66/22
f 77/64/19 73/65/19 87/66/19
f 84/64/19 83/65/19 87/66/19
f 79/64/39 80/65/39 88/66/39
f 85/64/24 86/65/24 88/66/24
f 73/64/40 74/65/40 84/66/40
f 81/64/26 82/65/26 84/66/26
f 91/64/27 94/65/27 95/66/27
f 77/64/41 78/65/41 94/66/41
f 92/64/42 74/65/42 91/66/42
f 73/64/30 77/65/30 91/66/30
f 97/64/31 96/65/31 101/66/31
f 94/64/27 93/65/27 98/66/27
f 93/64/27 92/65/27 97/66/27
f 96/64/27 92/65/27 95/66/27
f 102/64/32 101/65/32 99/66/32
f 100/64/43 96/65/43 99/66/43
f 95/64/34 98/65/34 99/66/34
f 98/64/44 97/65/44 102/66/44
l 89 90
