# Blender v2.76 (sub 0) OBJ File: 'tank_top_no_texture.blend'
# www.blender.org
mtllib tank_top_no_texture.mtl
o Cylinder
v -0.000000 1.749104 0.696858
v -0.000000 1.749104 3.791621
v 0.044747 1.737114 0.696858
v 0.044747 1.737114 3.791621
v 0.077504 1.704357 0.696861
v 0.077504 1.704357 3.791621
v 0.089493 1.659611 0.696861
v 0.089493 1.659611 3.791621
v 0.077504 1.614864 0.696861
v 0.077504 1.614864 3.791621
v 0.044747 1.582107 0.696861
v 0.044747 1.582107 3.791621
v 0.000000 1.570117 0.696861
v 0.000000 1.570117 3.791621
v -0.044747 1.582107 0.696861
v -0.044747 1.582107 3.791621
v -0.077504 1.614864 0.696861
v -0.077504 1.614864 3.791621
v -0.089493 1.659611 0.696861
v -0.089493 1.659611 3.791621
v -0.077504 1.704357 0.696861
v -0.077504 1.704357 3.791621
v -0.044747 1.737114 0.696858
v -0.044747 1.737114 3.791621
v -0.000000 1.749104 3.791621
v 0.044747 1.737114 3.791621
v 0.077504 1.704357 3.791621
v 0.089493 1.659611 3.791621
v 0.077504 1.614864 3.791621
v 0.044747 1.582107 3.791621
v 0.000000 1.570117 3.791621
v -0.044747 1.582107 3.791621
v -0.077504 1.614864 3.791621
v -0.089493 1.659611 3.791621
v -0.077504 1.704357 3.791621
v -0.044747 1.737114 3.791621
v -0.000000 1.749104 3.791621
v 0.044747 1.737114 3.791621
v 0.077504 1.704357 3.791621
v 0.089493 1.659611 3.791621
v 0.077504 1.614864 3.791621
v 0.044747 1.582107 3.791621
v 0.000000 1.570117 3.791621
v -0.044747 1.582107 3.791621
v -0.077504 1.614864 3.791621
v -0.089493 1.659611 3.791621
v -0.077504 1.704357 3.791621
v -0.044747 1.737114 3.791621
v 0.000000 1.734286 3.791621
v 0.037338 1.724281 3.791621
v 0.064671 1.696948 3.791621
v 0.074676 1.659611 3.791621
v 0.064671 1.622273 3.791621
v 0.037338 1.594940 3.791621
v 0.000000 1.584935 3.791621
v -0.037338 1.594940 3.791621
v -0.064671 1.622273 3.791621
v -0.074676 1.659611 3.791621
v -0.064671 1.696948 3.791621
v -0.037338 1.724281 3.791621
v 0.000000 1.734286 0.808854
v 0.037338 1.724281 0.808854
v 0.064671 1.696948 0.808854
v 0.074676 1.659611 0.808854
v 0.064671 1.622273 0.808854
v 0.037338 1.594940 0.808854
v 0.000000 1.584935 0.808854
v -0.037338 1.594940 0.808854
v -0.064671 1.622273 0.808854
v -0.074676 1.659611 0.808854
v -0.064671 1.696948 0.808854
v -0.037338 1.724281 0.808854
v -0.576626 1.528036 1.004383
v -0.450842 1.873363 0.815746
v -0.576626 1.528036 -1.467156
v -0.576626 1.873363 -1.520027
v 0.576626 1.528036 1.004383
v 0.450842 1.873363 0.815746
v 0.576626 1.528036 -1.467156
v 0.576626 1.873363 -1.520027
v -1.031434 2.157117 -0.221359
v -1.031434 2.157117 -0.870693
v -1.031434 1.528036 -0.870693
v -1.031434 1.528036 -0.221359
v 1.031434 2.157117 -0.870693
v 1.031434 2.157117 -0.221359
v 1.031434 1.528036 -0.221359
v 1.031434 1.528036 -0.870693
v 0.576626 1.528036 -1.388211
v -0.576626 1.528036 -1.388211
v -0.576626 1.528170 1.004628
v -0.450842 1.873497 0.815991
v 0.450842 1.873497 0.815991
v 0.576626 1.528170 1.004628
v -0.509755 1.548194 0.993690
v -0.398558 1.853474 0.826929
v 0.398558 1.853474 0.826929
v 0.509755 1.548194 0.993690
v -0.411363 1.577656 1.108231
v -0.321629 1.824011 0.991730
v 0.321629 1.824011 0.991730
v 0.411363 1.577656 1.108231
vn 0.258800 0.965900 0.000000
vn 0.707100 0.707100 0.000000
vn 0.965900 0.258800 0.000000
vn 0.965900 -0.258800 0.000000
vn 0.707100 -0.707100 0.000000
vn 0.258800 -0.965900 0.000000
vn -0.258800 -0.965900 0.000000
vn -0.707100 -0.707100 0.000000
vn -0.965900 -0.258800 0.000000
vn -0.965900 0.258800 0.000000
vn -0.707100 0.707100 0.000000
vn -0.258800 0.965900 0.000000
vn 0.000000 0.000000 1.000000
vn -0.000100 0.000000 1.000000
vn -0.791800 -0.092400 -0.603800
vn 0.000000 -0.151300 -0.988500
vn 0.827900 0.469300 0.307200
vn 0.000000 0.878100 -0.478400
vn 0.000000 -1.000000 0.000000
vn 0.000000 0.916300 -0.400400
vn 0.000000 0.964500 0.263900
vn 0.000000 1.000000 0.000000
vn 0.819100 0.000000 -0.573700
vn 1.000000 0.000000 0.000000
vn -0.872600 0.000000 0.488500
vn -1.000000 0.000000 0.000000
vn 0.000000 0.479400 0.877600
vn 0.952500 0.267200 -0.146000
vn -0.952500 0.267200 -0.145700
vn 0.000000 -0.877700 0.479200
vn 0.000000 0.984400 0.176000
vn 0.000000 0.427500 0.904000
vn -0.709900 0.518800 0.476400
vn 0.000000 -0.968500 0.249100
vn 0.756800 0.483600 0.439700
vn -0.819100 0.000000 -0.573700
vn 0.872600 0.000000 0.488500
vn 0.000000 0.877700 -0.479100
vn 0.791800 -0.092400 -0.603800
vn -0.827900 0.469300 0.307200
vn 0.952600 0.267200 -0.145800
vn -0.952500 0.267200 -0.146000
vn -0.756800 0.483600 0.439700
vn 0.709900 0.518800 0.476400
usemtl (null)
s off
f 1//1 2//1 4//1
f 4//2 6//2 5//2
f 6//3 8//3 7//3
f 8//4 10//4 9//4
f 10//5 12//5 11//5
f 12//6 14//6 13//6
f 14//7 16//7 15//7
f 16//8 18//8 17//8
f 18//9 20//9 19//9
f 20//10 22//10 21//10
f 21//11 22//11 24//11
f 24//12 2//12 1//12
f 16//13 14//13 31//13
f 14//13 12//13 30//13
f 12//13 10//13 29//13
f 10//13 8//13 28//13
f 2//13 24//13 36//13
f 8//13 6//13 27//13
f 24//13 22//13 35//13
f 6//13 4//13 26//13
f 22//13 20//13 34//13
f 4//13 2//13 25//13
f 20//13 18//13 33//13
f 18//13 16//13 32//13
f 25//13 36//13 48//13
f 27//13 26//13 38//13
f 34//13 33//13 45//13
f 31//13 30//13 42//13
f 28//13 27//13 39//13
f 35//13 34//13 46//13
f 32//13 31//13 43//13
f 29//13 28//13 40//13
f 36//13 35//13 47//13
f 26//13 25//13 37//13
f 33//13 32//13 44//13
f 30//13 29//13 41//13
f 41//13 53//13 54//13
f 48//13 60//13 49//13
f 38//13 50//13 51//13
f 45//14 57//14 58//14
f 42//13 54//13 55//13
f 39//13 51//13 52//13
f 46//13 58//13 59//13
f 43//13 55//13 56//13
f 40//13 52//13 53//13
f 47//13 59//13 60//13
f 38//13 37//13 49//13
f 44//13 56//13 57//13
f 53//11 65//11 66//11
f 60//6 72//6 61//6
f 50//8 62//8 63//8
f 57//3 69//3 70//3
f 54//12 66//12 67//12
f 51//9 63//9 64//9
f 58//4 70//4 71//4
f 55//1 67//1 68//1
f 52//10 64//10 65//10
f 59//5 71//5 72//5
f 49//7 61//7 62//7
f 56//2 68//2 69//2
f 76//15 75//15 83//15
f 80//16 79//16 75//16
f 78//17 77//17 87//17
f 74//18 92//18 93//18
f 75//19 79//19 88//19
f 80//20 76//20 82//20
f 78//21 86//21 81//21
f 85//22 82//22 81//22
f 73//19 84//19 87//19
f 83//19 88//19 87//19
f 80//23 85//23 88//23
f 86//24 87//24 88//24
f 74//25 81//25 84//25
f 82//26 83//26 84//26
f 94//27 98//27 95//27
f 78//28 93//28 94//28
f 74//29 73//29 91//29
f 77//30 94//30 91//30
f 96//31 100//31 101//31
f 93//27 97//27 98//27
f 92//27 96//27 97//27
f 92//27 91//27 95//27
f 101//32 100//32 99//32
f 96//33 95//33 99//33
f 98//34 102//34 99//34
f 97//35 101//35 102//35
f 3//1 1//1 4//1
f 3//2 4//2 5//2
f 5//3 6//3 7//3
f 7//4 8//4 9//4
f 9//5 10//5 11//5
f 11//6 12//6 13//6
f 13//7 14//7 15//7
f 15//8 16//8 17//8
f 17//9 18//9 19//9
f 19//10 20//10 21//10
f 23//11 21//11 24//11
f 23//12 24//12 1//12
f 32//13 16//13 31//13
f 31//13 14//13 30//13
f 30//13 12//13 29//13
f 29//13 10//13 28//13
f 25//13 2//13 36//13
f 28//13 8//13 27//13
f 36//13 24//13 35//13
f 27//13 6//13 26//13
f 35//13 22//13 34//13
f 26//13 4//13 25//13
f 34//13 20//13 33//13
f 33//13 18//13 32//13
f 37//13 25//13 48//13
f 39//13 27//13 38//13
f 46//13 34//13 45//13
f 43//13 31//13 42//13
f 40//13 28//13 39//13
f 47//13 35//13 46//13
f 44//13 32//13 43//13
f 41//13 29//13 40//13
f 48//13 36//13 47//13
f 38//13 26//13 37//13
f 45//13 33//13 44//13
f 42//13 30//13 41//13
f 42//13 41//13 54//13
f 37//13 48//13 49//13
f 39//13 38//13 51//13
f 46//13 45//13 58//13
f 43//13 42//13 55//13
f 40//13 39//13 52//13
f 47//13 46//13 59//13
f 44//13 43//13 56//13
f 41//13 40//13 53//13
f 48//13 47//13 60//13
f 50//13 38//13 49//13
f 45//13 44//13 57//13
f 54//11 53//11 66//11
f 49//6 60//6 61//6
f 51//8 50//8 63//8
f 58//3 57//3 70//3
f 55//12 54//12 67//12
f 52//9 51//9 64//9
f 59//4 58//4 71//4
f 56//1 55//1 68//1
f 53//10 52//10 65//10
f 60//5 59//5 72//5
f 50//7 49//7 62//7
f 57//2 56//2 69//2
f 82//36 76//36 83//36
f 76//16 80//16 75//16
f 86//37 78//37 87//37
f 78//38 74//38 93//38
f 83//19 75//19 88//19
f 85//20 80//20 82//20
f 74//21 78//21 81//21
f 86//22 85//22 81//22
f 77//19 73//19 87//19
f 84//19 83//19 87//19
f 79//39 80//39 88//39
f 85//24 86//24 88//24
f 73//40 74//40 84//40
f 81//26 82//26 84//26
f 91//27 94//27 95//27
f 77//41 78//41 94//41
f 92//42 74//42 91//42
f 73//30 77//30 91//30
f 97//31 96//31 101//31
f 94//27 93//27 98//27
f 93//27 92//27 97//27
f 96//27 92//27 95//27
f 102//32 101//32 99//32
f 100//43 96//43 99//43
f 95//34 98//34 99//34
f 98//44 97//44 102//44
l 89 90
