# Blender v2.76 (sub 0) OBJ File: 'tank_top.blend'
# www.blender.org
mtllib tank_top_texture.mtl
o Cylinder
v -0.000000 1.749104 0.696858
v -0.000000 1.749104 3.791621
v 0.044747 1.737114 0.696858
v 0.044747 1.737114 3.791621
v 0.077504 1.704357 0.696861
v 0.077504 1.704357 3.791621
v 0.089493 1.659611 0.696861
v 0.089493 1.659611 3.791621
v 0.077504 1.614864 0.696861
v 0.077504 1.614864 3.791621
v 0.044747 1.582107 0.696861
v 0.044747 1.582107 3.791621
v 0.000000 1.570117 0.696861
v 0.000000 1.570117 3.791621
v -0.044747 1.582107 0.696861
v -0.044747 1.582107 3.791621
v -0.077504 1.614864 0.696861
v -0.077504 1.614864 3.791621
v -0.089493 1.659611 0.696861
v -0.089493 1.659611 3.791621
v -0.077504 1.704357 0.696861
v -0.077504 1.704357 3.791621
v -0.044747 1.737114 0.696858
v -0.044747 1.737114 3.791621
v -0.000000 1.749104 3.791621
v 0.044747 1.737114 3.791621
v 0.077504 1.704357 3.791621
v 0.089493 1.659611 3.791621
v 0.077504 1.614864 3.791621
v 0.044747 1.582107 3.791621
v 0.000000 1.570117 3.791621
v -0.044747 1.582107 3.791621
v -0.077504 1.614864 3.791621
v -0.089493 1.659611 3.791621
v -0.077504 1.704357 3.791621
v -0.044747 1.737114 3.791621
v -0.000000 1.749104 3.791621
v 0.044747 1.737114 3.791621
v 0.077504 1.704357 3.791621
v 0.089493 1.659611 3.791621
v 0.077504 1.614864 3.791621
v 0.044747 1.582107 3.791621
v 0.000000 1.570117 3.791621
v -0.044747 1.582107 3.791621
v -0.077504 1.614864 3.791621
v -0.089493 1.659611 3.791621
v -0.077504 1.704357 3.791621
v -0.044747 1.737114 3.791621
v 0.000000 1.734286 3.791621
v 0.037338 1.724281 3.791621
v 0.064671 1.696948 3.791621
v 0.074676 1.659611 3.791621
v 0.064671 1.622273 3.791621
v 0.037338 1.594940 3.791621
v 0.000000 1.584935 3.791621
v -0.037338 1.594940 3.791621
v -0.064671 1.622273 3.791621
v -0.074676 1.659611 3.791621
v -0.064671 1.696948 3.791621
v -0.037338 1.724281 3.791621
v 0.000000 1.734286 0.808854
v 0.037338 1.724281 0.808854
v 0.064671 1.696948 0.808854
v 0.074676 1.659611 0.808854
v 0.064671 1.622273 0.808854
v 0.037338 1.594940 0.808854
v 0.000000 1.584935 0.808854
v -0.037338 1.594940 0.808854
v -0.064671 1.622273 0.808854
v -0.074676 1.659611 0.808854
v -0.064671 1.696948 0.808854
v -0.037338 1.724281 0.808854
v -0.576626 1.528036 1.004383
v -0.450842 1.873363 0.815746
v -0.576626 1.528036 -1.467156
v -0.576626 1.873363 -1.520027
v 0.576626 1.528036 1.004383
v 0.450842 1.873363 0.815746
v 0.576626 1.528036 -1.467156
v 0.576626 1.873363 -1.520027
v -1.031434 2.157117 -0.221359
v -1.031434 2.157117 -0.870693
v -1.031434 1.528036 -0.870693
v -1.031434 1.528036 -0.221359
v 1.031434 2.157117 -0.870693
v 1.031434 2.157117 -0.221359
v 1.031434 1.528036 -0.221359
v 1.031434 1.528036 -0.870693
v 0.576626 1.528036 -1.388211
v -0.576626 1.528036 -1.388211
v -0.576626 1.528170 1.004628
v -0.450842 1.873497 0.815991
v 0.450842 1.873497 0.815991
v 0.576626 1.528170 1.004628
v -0.509755 1.548194 0.993690
v -0.398558 1.853474 0.826929
v 0.398558 1.853474 0.826929
v 0.509755 1.548194 0.993690
v -0.411363 1.577656 1.108231
v -0.321629 1.824011 0.991730
v 0.321629 1.824011 0.991730
v 0.411363 1.577656 1.108231
vt 0.975773 0.006022
vt 0.048145 0.003864
vt 0.044804 0.003316
vt 0.039126 0.002866
vt 0.939954 0.002674
vt 0.030783 0.002686
vt 0.928564 0.004534
vt 0.018691 0.003056
vt 0.921648 0.007839
vt 0.000015 0.004038
vt 0.919300 0.011894
vt 0.018683 0.005340
vt 0.921621 0.015989
vt 0.030772 0.005914
vt 0.928514 0.019412
vt 0.039113 0.005877
vt 0.939891 0.021467
vt 0.044783 0.005532
vt 0.955663 0.021467
vt 0.048149 0.005033
vt 0.975730 0.018732
vt 0.049289 0.004458
vt 0.019771 0.006876
vt 0.005409 0.004084
vt 0.019788 0.001535
vt 0.030498 0.001614
vt 0.048166 0.004447
vt 0.038304 0.002187
vt 0.047051 0.005215
vt 0.043801 0.002915
vt 0.043762 0.005925
vt 0.047033 0.003661
vt 0.038289 0.006542
vt 0.030482 0.006985
vt 0.047043 0.004436
vt 0.042798 0.002515
vt 0.037466 0.007206
vt 0.010803 0.004130
vt 0.037482 0.001508
vt 0.042740 0.006317
vt 0.020858 0.008413
vt 0.030213 0.000542
vt 0.045953 0.005397
vt 0.045921 0.003458
vt 0.030191 0.008056
vt 0.020885 0.000015
vt 0.022566 0.003566
vt 0.017663 0.004335
vt 0.045570 0.004400
vt 0.044528 0.004379
vt 0.041396 0.004291
vt 0.036380 0.004089
vt 0.036327 0.004567
vt 0.041375 0.004458
vt 0.022513 0.004961
vt 0.029784 0.003784
vt 0.029715 0.004786
vt 0.034262 0.004303
vt 0.034246 0.004335
vt 0.034465 0.004337
vt 0.034417 0.004279
vt 0.034364 0.004400
vt 0.034263 0.004370
vt 0.034452 0.004371
vt 0.000000 0.000000
vt 1.000000 0.000000
vt 1.000000 1.000000
vt 0.955725 0.002943
vt 0.999985 0.012585
vn 0.258800 0.965900 0.000000
vn 0.707100 0.707100 0.000000
vn 0.965900 0.258800 0.000000
vn 0.965900 -0.258800 0.000000
vn 0.707100 -0.707100 0.000000
vn 0.258800 -0.965900 0.000000
vn -0.258800 -0.965900 0.000000
vn -0.707100 -0.707100 0.000000
vn -0.965900 -0.258800 0.000000
vn -0.965900 0.258800 0.000000
vn -0.707100 0.707100 0.000000
vn -0.258800 0.965900 0.000000
vn 0.000000 0.000000 1.000000
vn -0.000100 0.000000 1.000000
vn -0.791800 -0.092400 -0.603800
vn 0.000000 -0.151300 -0.988500
vn 0.827900 0.469300 0.307200
vn 0.000000 0.878100 -0.478400
vn 0.000000 -1.000000 0.000000
vn 0.000000 0.916300 -0.400400
vn 0.000000 0.964500 0.263900
vn 0.000000 1.000000 0.000000
vn 0.819100 0.000000 -0.573700
vn 1.000000 0.000000 0.000000
vn -0.872600 0.000000 0.488500
vn -1.000000 0.000000 0.000000
vn 0.000000 0.479400 0.877600
vn 0.952500 0.267200 -0.146000
vn -0.952500 0.267200 -0.145700
vn 0.000000 -0.877700 0.479200
vn 0.000000 0.984400 0.176000
vn 0.000000 0.427500 0.904000
vn -0.709900 0.518800 0.476400
vn 0.000000 -0.968500 0.249100
vn 0.756800 0.483600 0.439700
vn -0.819100 0.000000 -0.573700
vn 0.872600 0.000000 0.488500
vn 0.000000 0.877700 -0.479100
vn 0.791800 -0.092400 -0.603800
vn -0.827900 0.469300 0.307200
vn 0.952600 0.267200 -0.145800
vn -0.952500 0.267200 -0.146000
vn -0.756800 0.483600 0.439700
vn 0.709900 0.518800 0.476400
usemtl Material.004
s off
f 1/1/1 2/2/1 4/3/1
f 4/3/2 6/4/2 5/5/2
f 6/4/3 8/6/3 7/7/3
f 8/6/4 10/8/4 9/9/4
f 10/8/5 12/10/5 11/11/5
f 12/10/6 14/12/6 13/13/6
f 14/12/7 16/14/7 15/15/7
f 16/14/8 18/16/8 17/17/8
f 18/16/9 20/18/9 19/19/9
f 20/18/10 22/20/10 21/21/10
f 21/21/11 22/20/11 24/22/11
f 24/22/12 2/2/12 1/1/12
f 16/14/13 14/12/13 31/23/13
f 14/12/13 12/10/13 30/24/13
f 12/10/13 10/8/13 29/25/13
f 10/8/13 8/6/13 28/26/13
f 2/2/13 24/22/13 36/27/13
f 8/6/13 6/4/13 27/28/13
f 24/22/13 22/20/13 35/29/13
f 6/4/13 4/3/13 26/30/13
f 22/20/13 20/18/13 34/31/13
f 4/3/13 2/2/13 25/32/13
f 20/18/13 18/16/13 33/33/13
f 18/16/13 16/14/13 32/34/13
f 25/32/13 36/27/13 48/35/13
f 27/28/13 26/30/13 38/36/13
f 34/31/13 33/33/13 45/37/13
f 31/23/13 30/24/13 42/38/13
f 28/26/13 27/28/13 39/39/13
f 35/29/13 34/31/13 46/40/13
f 32/34/13 31/23/13 43/41/13
f 29/25/13 28/26/13 40/42/13
f 36/27/13 35/29/13 47/43/13
f 26/30/13 25/32/13 37/44/13
f 33/33/13 32/34/13 44/45/13
f 30/24/13 29/25/13 41/46/13
f 41/46/13 53/47/13 54/48/13
f 48/35/13 60/49/13 49/50/13
f 38/36/13 50/51/13 51/52/13
f 45/37/14 57/53/14 58/54/14
f 42/38/13 54/48/13 55/55/13
f 39/39/13 51/52/13 52/56/13
f 46/40/13 58/54/13 59/50/13
f 43/41/13 55/55/13 56/57/13
f 40/42/13 52/56/13 53/47/13
f 47/43/13 59/50/13 60/49/13
f 38/36/13 37/44/13 49/50/13
f 44/45/13 56/57/13 57/53/13
f 53/47/11 65/58/11 66/59/11
f 60/49/6 72/60/6 61/60/6
f 50/51/8 62/61/8 63/61/8
f 57/53/3 69/62/3 70/62/3
f 54/48/12 66/59/12 67/63/12
f 51/52/9 63/61/9 64/58/9
f 58/54/4 70/62/4 71/64/4
f 55/55/1 67/63/1 68/63/1
f 52/56/10 64/58/10 65/58/10
f 59/50/5 71/64/5 72/60/5
f 49/50/7 61/60/7 62/61/7
f 56/57/2 68/63/2 69/62/2
f 76/65/15 75/66/15 83/67/15
f 80/65/16 79/66/16 75/67/16
f 78/65/17 77/66/17 87/67/17
f 74/65/18 92/66/18 93/67/18
f 75/65/19 79/66/19 88/67/19
f 80/65/20 76/66/20 82/67/20
f 78/65/21 86/66/21 81/67/21
f 85/65/22 82/66/22 81/67/22
f 73/65/19 84/66/19 87/67/19
f 83/65/19 88/66/19 87/67/19
f 80/65/23 85/66/23 88/67/23
f 86/65/24 87/66/24 88/67/24
f 74/65/25 81/66/25 84/67/25
f 82/65/26 83/66/26 84/67/26
f 94/65/27 98/66/27 95/67/27
f 78/65/28 93/66/28 94/67/28
f 74/65/29 73/66/29 91/67/29
f 77/65/30 94/66/30 91/67/30
f 96/65/31 100/66/31 101/67/31
f 93/65/27 97/66/27 98/67/27
f 92/65/27 96/66/27 97/67/27
f 92/65/27 91/66/27 95/67/27
f 101/65/32 100/66/32 99/67/32
f 96/65/33 95/66/33 99/67/33
f 98/65/34 102/66/34 99/67/34
f 97/65/35 101/66/35 102/67/35
f 3/68/1 1/1/1 4/3/1
f 3/68/2 4/3/2 5/5/2
f 5/5/3 6/4/3 7/7/3
f 7/7/4 8/6/4 9/9/4
f 9/9/5 10/8/5 11/11/5
f 11/11/6 12/10/6 13/13/6
f 13/13/7 14/12/7 15/15/7
f 15/15/8 16/14/8 17/17/8
f 17/17/9 18/16/9 19/19/9
f 19/19/10 20/18/10 21/21/10
f 23/69/11 21/21/11 24/22/11
f 23/69/12 24/22/12 1/1/12
f 32/34/13 16/14/13 31/23/13
f 31/23/13 14/12/13 30/24/13
f 30/24/13 12/10/13 29/25/13
f 29/25/13 10/8/13 28/26/13
f 25/32/13 2/2/13 36/27/13
f 28/26/13 8/6/13 27/28/13
f 36/27/13 24/22/13 35/29/13
f 27/28/13 6/4/13 26/30/13
f 35/29/13 22/20/13 34/31/13
f 26/30/13 4/3/13 25/32/13
f 34/31/13 20/18/13 33/33/13
f 33/33/13 18/16/13 32/34/13
f 37/44/13 25/32/13 48/35/13
f 39/39/13 27/28/13 38/36/13
f 46/40/13 34/31/13 45/37/13
f 43/41/13 31/23/13 42/38/13
f 40/42/13 28/26/13 39/39/13
f 47/43/13 35/29/13 46/40/13
f 44/45/13 32/34/13 43/41/13
f 41/46/13 29/25/13 40/42/13
f 48/35/13 36/27/13 47/43/13
f 38/36/13 26/30/13 37/44/13
f 45/37/13 33/33/13 44/45/13
f 42/38/13 30/24/13 41/46/13
f 42/38/13 41/46/13 54/48/13
f 37/44/13 48/35/13 49/50/13
f 39/39/13 38/36/13 51/52/13
f 46/40/13 45/37/13 58/54/13
f 43/41/13 42/38/13 55/55/13
f 40/42/13 39/39/13 52/56/13
f 47/43/13 46/40/13 59/50/13
f 44/45/13 43/41/13 56/57/13
f 41/46/13 40/42/13 53/47/13
f 48/35/13 47/43/13 60/49/13
f 50/51/13 38/36/13 49/50/13
f 45/37/13 44/45/13 57/53/13
f 54/48/11 53/47/11 66/59/11
f 49/50/6 60/49/6 61/60/6
f 51/52/8 50/51/8 63/61/8
f 58/54/3 57/53/3 70/62/3
f 55/55/12 54/48/12 67/63/12
f 52/56/9 51/52/9 64/58/9
f 59/50/4 58/54/4 71/64/4
f 56/57/1 55/55/1 68/63/1
f 53/47/10 52/56/10 65/58/10
f 60/49/5 59/50/5 72/60/5
f 50/51/7 49/50/7 62/61/7
f 57/53/2 56/57/2 69/62/2
f 82/65/36 76/66/36 83/67/36
f 76/65/16 80/66/16 75/67/16
f 86/65/37 78/66/37 87/67/37
f 78/65/38 74/66/38 93/67/38
f 83/65/19 75/66/19 88/67/19
f 85/65/20 80/66/20 82/67/20
f 74/65/21 78/66/21 81/67/21
f 86/65/22 85/66/22 81/67/22
f 77/65/19 73/66/19 87/67/19
f 84/65/19 83/66/19 87/67/19
f 79/65/39 80/66/39 88/67/39
f 85/65/24 86/66/24 88/67/24
f 73/65/40 74/66/40 84/67/40
f 81/65/26 82/66/26 84/67/26
f 91/65/27 94/66/27 95/67/27
f 77/65/41 78/66/41 94/67/41
f 92/65/42 74/66/42 91/67/42
f 73/65/30 77/66/30 91/67/30
f 97/65/31 96/66/31 101/67/31
f 94/65/27 93/66/27 98/67/27
f 93/65/27 92/66/27 97/67/27
f 96/65/27 92/66/27 95/67/27
f 102/65/32 101/66/32 99/67/32
f 100/65/43 96/66/43 99/67/43
f 95/65/34 98/66/34 99/67/34
f 98/65/44 97/66/44 102/67/44
l 89 90
